<svg xmlns:xodm="http://www.corel.com/coreldraw/odm/2003" xmlns="http://www.w3.org/2000/svg" xmlns:xlink="http://www.w3.org/1999/xlink" id="Layer_1" x="0px" y="0px" width="323.7px" height="153.9px" viewBox="0 0 323.7 153.9" style="enable-background:new 0 0 323.7 153.9;" xml:space="preserve"><style type="text/css">	.st0{fill-rule:evenodd;clip-rule:evenodd;fill:#EA001A;}	.st1{enable-background:new    ;}</style><g>	<path d="M98.6,61.9c3-1.2,6.4-1.8,10.2-1.8v16.4c-1.7-0.2-3-0.3-4.1-0.3c-3.9,0-7,1.1-9.2,3.2c-2.2,2.1-3.3,5.3-3.3,9.7V113H74V61  h17.4v6.2C93.2,64.8,95.6,63.1,98.6,61.9L98.6,61.9z"></path></g><g>	<path d="M149.8,96.1c2-2.2,3.1-5.3,3.1-9.2c0-3.8-1-6.9-3.1-9c-2-2.2-4.7-3.3-7.9-3.3c-3.2,0-5.8,1.1-7.9,3.3c-2,2.2-3.1,5.2-3.1,9  c0,3.9,1,7,3.1,9.2c2,2.2,4.7,3.3,7.9,3.3C145.2,99.4,147.8,98.3,149.8,96.1z M126.9,110.4c-4.5-2.3-8-5.5-10.5-9.6  c-2.5-4.1-3.8-8.7-3.8-13.9c0-5.1,1.3-9.7,3.8-13.8c2.5-4.1,6-7.3,10.5-9.6c4.4-2.3,9.5-3.4,15.1-3.4c5.6,0,10.7,1.1,15.2,3.4  c4.5,2.3,8,5.4,10.5,9.5c2.5,4.1,3.7,8.7,3.7,13.9s-1.2,9.8-3.7,13.9c-2.5,4.1-6,7.3-10.5,9.6c-4.5,2.3-9.5,3.5-15.2,3.5  C136.4,113.9,131.4,112.7,126.9,110.4z"></path></g><g>	<polygon points="264.6,61 246.1,113 228.4,113 218.6,84.7 208.4,113 190.8,113 172.2,61 189.5,61 200.2,92.5 211.2,61 226.8,61   237.5,92.7 248.6,61  "></polygon></g><g>	<polygon class="st0" points="282.3,83.3 270.7,79.7 279.9,50 249.5,50.6 249.3,38.4 296.6,37.5  "></polygon></g><g>	<polygon class="st0" points="276.5,27.4 270.4,9.1 282,5.3 288,23.6  "></polygon></g><g>	<polygon class="st0" points="316.5,72.1 300.6,60.4 307.8,50.6 323.7,62.3  "></polygon></g><g>	<polygon class="st0" points="307.7,37.4 300.6,27.5 316.4,16.3 323.5,26.2  "></polygon></g><g>	<path d="M40.8,92.8c-2.1,2-4.8,3-8.1,3c-2.6,0-4.8-0.6-6.7-1.9c-0.5-0.3-1-0.7-1.4-1.1c-2.2-2-3.3-4.5-3.3-7.7  c0-3.1,1.1-5.7,3.2-7.6c2.1-1.9,4.9-2.9,8.2-2.9c3.3,0,6,1,8.1,2.9C43,79.5,44,82,44,85.2C44,88.3,43,90.8,40.8,92.8z M44.7,61v6.3  c-3.4-4.8-8.9-7.2-16.3-7.2c-4.6,0-8.8,1-12.7,3.1c-3.9,2.1-7,5-9.3,8.8C4.1,75.9,3,80.2,3,85.2c0,5,1.1,9.4,3.4,13.2  c2.3,3.8,5.4,6.7,9.3,8.8c0.5,0.3,1.1,0.6,1.7,0.8c3.4,1.5,7.1,2.3,11.1,2.3c6.8,0,11.9-2,15.4-6.1v1.7c0,4.1-1.1,7.3-3.4,9.4  c-2.2,2.1-5.7,3.2-10.5,3.2c-3.1,0-6.3-0.5-9.5-1.5c-2.6-0.8-4.8-1.8-6.7-3.1l-7.4,12.1c3,2.1,6.7,3.7,10.9,4.8  c4.5,1.1,9.3,1.7,14.4,1.7c9.8,0,17.3-2.4,22.6-7.2c5.2-4.8,7.9-12,7.9-21.7V61L44.7,61L44.7,61z"></path></g><g class="st1">	<path d="M70.4,146.9l-2.8-14.6h3.1l1.7,10.5l5.4-10.5h2.1l2.3,10.5l4.8-10.5h3.1L83,146.9h-2.6l-2.3-10.4L73,146.9H70.4z"></path>	<path d="M93.2,146.9h-3l2.2-14.6h3L93.2,146.9z M92.5,128.2c0.2-1.1,1.1-1.9,2.3-1.9c1.2,0,1.9,0.9,1.8,2.1  c-0.1,1.1-1.1,1.9-2.2,1.9C93.1,130.4,92.3,129.4,92.5,128.2z"></path>	<path d="M102.9,134.8l-1,6.9c-0.3,1.8,0.3,2.7,1.8,2.7c0.8,0,1.7-0.3,2.7-0.8l0.8,2.4c-1.3,0.8-2.7,1.2-4.2,1.2  c-3.2,0-4.6-2.1-4-5.7l1-6.7h-2.5l0.4-2.6h2.5l0.8-5.2h3l-0.8,5.2h5.1l-0.4,2.6H102.9z"></path>	<path d="M108.9,146.9l3.1-20.6h2.9l-1.2,8c1.1-1.5,2.9-2.4,5-2.4c1.6,0,2.9,0.5,3.9,1.6s1.3,2.7,1,4.8l-1.2,8.6h-3l1.2-8.1  c0.4-2.7-0.7-4.1-2.8-4.1c-2.4,0-4.2,1.8-4.6,4.7l-1.1,7.6H108.9z"></path></g><g class="st1"></g><g class="st1">	<path d="M131.9,143.8l2.6-3.7c1.7,1.7,3.6,2.5,5.7,2.5c1.2,0,2.3-0.5,2.3-1.5c0-0.6-0.5-1.1-1.6-1.5L139,139c-1.1-0.4-2-0.7-2.6-1  c-2.2-1.2-3.3-2.9-3.3-5.2c0-1.8,0.7-3.3,2.1-4.4s3.2-1.8,5.4-1.8c2.7,0,5.1,0.8,7.1,2.5l-2.4,3.9c-1.2-1-3.2-1.7-4.7-1.7  c-1.4,0-2.1,0.6-2.1,1.3c0,0.6,0.5,1.1,1.6,1.5l1.8,0.7c1,0.4,1.8,0.7,2.3,0.9c2.6,1.1,3.8,2.9,3.8,5.3c0,1.9-0.7,3.4-2.2,4.6  c-1.4,1.2-3.4,1.8-5.8,1.8C136.7,147.3,134,146.1,131.9,143.8z"></path>	<path d="M161.3,146.1c-1.4,0.8-3,1.2-4.8,1.2c-3.7,0-5.6-2.1-5.6-6.2v-5.2h-2.3v-4h2.3v-5.3h4.8v5.3h4.7v4h-4.7v4.6  c0,1.6,0.6,2.4,1.9,2.4c0.7,0,1.5-0.2,2.4-0.7L161.3,146.1z"></path>	<path d="M177.6,141h-10.7c0.5,1.6,1.8,2.4,3.7,2.4c1.7,0,3.1-0.5,4.5-1.4l1.9,3.2c-1.9,1.4-4.1,2.1-6.6,2.1c-2.7,0-4.7-0.8-6.1-2.3  c-1.4-1.5-2.1-3.4-2.1-5.6c0-2.3,0.7-4.1,2.2-5.6c1.5-1.5,3.4-2.3,5.8-2.3c2.2,0,4.1,0.7,5.5,2c1.4,1.3,2.2,3.2,2.2,5.5  C177.7,139.7,177.7,140.3,177.6,141z M166.8,137.7h6.4c-0.4-1.4-1.5-2.3-3.1-2.3C168.4,135.4,167.3,136.1,166.8,137.7z"></path>	<path d="M180.1,146.9v-15h4.6v1.8c0.9-1.5,2.3-2.3,4-2.3c0.7,0,1.3,0.1,1.9,0.4l-0.4,4.6c-0.7-0.2-1.4-0.4-2-0.4  c-2.2,0-3.3,1.4-3.3,4.3v6.5H180.1z"></path>	<path d="M196.9,146.9h-4.8v-20.7h4.8V146.9z"></path>	<path d="M199.7,127.8c0-1.5,1.2-2.7,2.8-2.7c1.5,0,2.7,1.2,2.7,2.7c0,1.6-1.2,2.8-2.7,2.8C200.9,130.6,199.7,129.4,199.7,127.8z   M204.9,146.9h-4.8v-15h4.8V146.9z"></path>	<path d="M207.8,146.9v-15h4.7v2.1c0.7-1.4,2.5-2.5,4.7-2.5c1.6,0,3,0.5,4.1,1.6c1.1,1.1,1.7,2.6,1.7,4.6v9.2h-4.8V139  c0-2-1-3.1-2.6-3.1c-1.7,0-2.9,1.3-2.9,3.2v7.8H207.8z"></path>	<path d="M237,131.9h4.3v13.5c0,2.4-0.8,4.3-2.4,5.7c-1.6,1.4-3.6,2.1-6.1,2.1c-2.7,0-5-0.8-7.1-2.3l1.7-3.5  c1.7,1.1,3.4,1.7,5.2,1.7c2.7,0,4.2-1.5,4.2-3.4v-0.3c-1.1,1-2.4,1.5-4.2,1.5c-2.2,0-4-0.7-5.4-2.1c-1.4-1.4-2-3.3-2-5.5  c0-2.3,0.7-4.2,2.2-5.6c1.4-1.4,3.3-2.1,5.5-2.1c1.7,0,3.1,0.5,4.2,1.6V131.9z M233.3,136c-2,0-3.4,1.4-3.4,3.4  c0,2,1.4,3.5,3.4,3.5s3.4-1.5,3.4-3.5C236.7,137.4,235.3,136,233.3,136z"></path></g></svg>